<?xml version="1.0" standalone="no"?><!DOCTYPE svg PUBLIC "-//W3C//DTD SVG 1.1//EN" "http://www.w3.org/Graphics/SVG/1.1/DTD/svg11.dtd"><svg t="1597412807875" class="icon" viewBox="0 0 1024 1024" version="1.1" xmlns="http://www.w3.org/2000/svg" p-id="15622" xmlns:xlink="http://www.w3.org/1999/xlink" width="200" height="200"><defs><style type="text/css"></style></defs><path d="M304.95 291.51m-71.51 0a71.51 71.51 0 1 0 143.02 0 71.51 71.51 0 1 0-143.02 0Z" fill="#CEE9F4" p-id="15623"></path><path d="M562.26 291.51m-71.51 0a71.51 71.51 0 1 0 143.02 0 71.51 71.51 0 1 0-143.02 0Z" fill="#F7D134" p-id="15624"></path><path d="M819.57 291.51m-71.51 0a71.51 71.51 0 1 0 143.02 0 71.51 71.51 0 1 0-143.02 0Z" fill="#CEE9F4" p-id="15625"></path><path d="M304.95 521.27m-71.51 0a71.51 71.51 0 1 0 143.02 0 71.51 71.51 0 1 0-143.02 0Z" fill="#F7D134" p-id="15626"></path><path d="M562.26 521.27m-71.51 0a71.51 71.51 0 1 0 143.02 0 71.51 71.51 0 1 0-143.02 0Z" fill="#CEE9F4" p-id="15627"></path><path d="M819.57 521.27m-71.51 0a71.51 71.51 0 1 0 143.02 0 71.51 71.51 0 1 0-143.02 0Z" fill="#F7D134" p-id="15628"></path><path d="M285 359a87.51 87.51 0 1 1 87.51-87.5A87.6 87.6 0 0 1 285 359z m0-143a55.51 55.51 0 1 0 55.51 55.51A55.58 55.58 0 0 0 285 216zM542.26 359a87.51 87.51 0 1 1 87.51-87.5 87.6 87.6 0 0 1-87.51 87.5z m0-143a55.51 55.51 0 1 0 55.51 55.51A55.57 55.57 0 0 0 542.26 216zM799.57 359a87.51 87.51 0 1 1 87.5-87.5 87.6 87.6 0 0 1-87.5 87.5z m0-143a55.51 55.51 0 1 0 55.5 55.51 55.57 55.57 0 0 0-55.5-55.51zM285 588.77a87.51 87.51 0 1 1 87.51-87.5 87.6 87.6 0 0 1-87.51 87.5z m0-143a55.51 55.51 0 1 0 55.51 55.51A55.58 55.58 0 0 0 285 445.76zM542.26 588.77a87.51 87.51 0 1 1 87.51-87.5 87.6 87.6 0 0 1-87.51 87.5z m0-143a55.51 55.51 0 1 0 55.51 55.51 55.57 55.57 0 0 0-55.51-55.52zM799.57 588.77a87.51 87.51 0 1 1 87.5-87.5 87.6 87.6 0 0 1-87.5 87.5z m0-143a55.51 55.51 0 1 0 55.5 55.51 55.57 55.57 0 0 0-55.5-55.52zM622.21 842.13q-3.68 0-7.39-0.17c-55.15-2.42-86.11-26.34-116-49.46-33-25.52-64.23-49.63-131.29-52.52-123.12-5.31-162.21 90.86-162.59 91.83a16 16 0 0 1-29.8-11.66c0.48-1.24 12.19-30.6 42-58.95 27.31-26.07 75.86-56.46 151.73-53.2 77.21 3.33 115.6 33 149.48 59.16 28.36 21.93 52.86 40.84 97.88 42.84 52.25 2.31 100.9-25.74 147.93-52.85C808 731.87 849.41 708 893.1 708h1.64a16 16 0 0 1-0.22 32h-1.38c-35.17 0-73 21.81-113 44.88-46.66 26.89-99.31 57.24-157.93 57.25z" fill="" p-id="15629"></path></svg>