<?xml version="1.0" standalone="no"?><!DOCTYPE svg PUBLIC "-//W3C//DTD SVG 1.1//EN" "http://www.w3.org/Graphics/SVG/1.1/DTD/svg11.dtd"><svg t="1597412434181" class="icon" viewBox="0 0 1024 1024" version="1.1" xmlns="http://www.w3.org/2000/svg" p-id="3219" xmlns:xlink="http://www.w3.org/1999/xlink" width="200" height="200"><defs><style type="text/css"></style></defs><path d="M804.4 256.17C776.16 157.49 685.28 85.25 577.52 85.25c-110 0-202.49 75.33-228.6 177.23a211.72 211.72 0 0 0-21.48-1.1c-115 0-208.31 93.27-208.31 208.31S212.39 678 327.44 678h443.14c117.23 0 212.26-95 212.26-212.26 0-105.74-77.29-193.37-178.44-209.57z" fill="#CEE9F4" p-id="3220"></path><path d="M720.58 664h-153.5a16 16 0 1 1 0-32h153.5c108.22 0 196.26-88 196.26-196.26 0-97-69.38-178.46-165-193.77A16 16 0 0 1 739 230.58C712.17 136.77 625.2 71.25 527.52 71.25a219.8 219.8 0 0 0-213.1 165.2 16 16 0 0 1-17.13 12 196.18 196.18 0 0 0-19.85-1c-106 0-192.31 86.27-192.31 192.31S171.4 632 277.44 632h26.4a16 16 0 0 1 0 32h-26.4a224.31 224.31 0 0 1 0-448.62q4.81 0 9.66 0.21a252.06 252.06 0 0 1 479.73-3.4A228.27 228.27 0 0 1 720.58 664z" fill="" p-id="3221"></path><path d="M449.26 698.51m-71.51 0a71.51 71.51 0 1 0 143.02 0 71.51 71.51 0 1 0-143.02 0Z" fill="#F7D134" p-id="3222"></path><path d="M357.26 896.27m-71.51 0a71.51 71.51 0 1 0 143.02 0 71.51 71.51 0 1 0-143.02 0Z" fill="#CEE9F4" p-id="3223"></path><path d="M667.57 814.27m-71.51 0a71.51 71.51 0 1 0 143.02 0 71.51 71.51 0 1 0-143.02 0Z" fill="#CEE9F4" p-id="3224"></path><path d="M429.26 766a87.51 87.51 0 1 1 87.51-87.5 87.6 87.6 0 0 1-87.51 87.5z m0-143a55.51 55.51 0 1 0 55.51 55.51A55.57 55.57 0 0 0 429.26 623zM337.26 963.77a87.51 87.51 0 1 1 87.51-87.5 87.6 87.6 0 0 1-87.51 87.5z m0-143a55.51 55.51 0 1 0 55.51 55.51 55.57 55.57 0 0 0-55.51-55.52zM647.57 881.77a87.51 87.51 0 1 1 87.5-87.5 87.6 87.6 0 0 1-87.5 87.5z m0-143a55.51 55.51 0 1 0 55.5 55.51 55.57 55.57 0 0 0-55.5-55.52z" fill="" p-id="3225"></path></svg>