<?xml version="1.0" standalone="no"?><!DOCTYPE svg PUBLIC "-//W3C//DTD SVG 1.1//EN" "http://www.w3.org/Graphics/SVG/1.1/DTD/svg11.dtd"><svg t="1597412362260" class="icon" viewBox="0 0 1024 1024" version="1.1" xmlns="http://www.w3.org/2000/svg" p-id="1640" xmlns:xlink="http://www.w3.org/1999/xlink" width="200" height="200"><defs><style type="text/css"></style></defs><path d="M758.76 534.47m-207.24 0a207.24 207.24 0 1 0 414.48 0 207.24 207.24 0 1 0-414.48 0Z" fill="#CEE9F4" p-id="1641"></path><path d="M344.76 534.47m-207.24 0a207.24 207.24 0 1 0 414.48 0 207.24 207.24 0 1 0-414.48 0Z" fill="#CEE9F4" p-id="1642"></path><path d="M718.76 737.71a223.24 223.24 0 1 1 157.85-65.38 221.77 221.77 0 0 1-157.85 65.38z m0-414.48c-105.45 0-191.24 85.79-191.24 191.24s85.79 191.24 191.24 191.24S910 619.92 910 514.47s-85.79-191.24-191.24-191.24z" fill="" p-id="1643"></path><path d="M304.76 737.71a223.24 223.24 0 1 1 157.85-65.38 221.77 221.77 0 0 1-157.85 65.38z m0-414.48c-105.45 0-191.24 85.79-191.24 191.24s85.79 191.24 191.24 191.24S496 619.92 496 514.47s-85.79-191.24-191.24-191.24z" fill="" p-id="1644"></path><path d="M116 214m-18 0a18 18 0 1 0 36 0 18 18 0 1 0-36 0Z" fill="" p-id="1645"></path><path d="M512 214m-18 0a18 18 0 1 0 36 0 18 18 0 1 0-36 0Z" fill="" p-id="1646"></path><path d="M908 214m-18 0a18 18 0 1 0 36 0 18 18 0 1 0-36 0Z" fill="" p-id="1647"></path><path d="M116 815m-18 0a18 18 0 1 0 36 0 18 18 0 1 0-36 0Z" fill="" p-id="1648"></path><path d="M512 815m-18 0a18 18 0 1 0 36 0 18 18 0 1 0-36 0Z" fill="" p-id="1649"></path><path d="M908 815m-18 0a18 18 0 1 0 36 0 18 18 0 1 0-36 0Z" fill="" p-id="1650"></path></svg>