<?xml version="1.0" standalone="no"?><!DOCTYPE svg PUBLIC "-//W3C//DTD SVG 1.1//EN" "http://www.w3.org/Graphics/SVG/1.1/DTD/svg11.dtd"><svg t="1597412819177" class="icon" viewBox="0 0 1024 1024" version="1.1" xmlns="http://www.w3.org/2000/svg" p-id="15781" xmlns:xlink="http://www.w3.org/1999/xlink" width="200" height="200"><defs><style type="text/css"></style></defs><path d="M507.01 259.96m-75.3 0a75.3 75.3 0 1 0 150.6 0 75.3 75.3 0 1 0-150.6 0Z" fill="#F7D134" p-id="15782"></path><path d="M391.44 469.63m-75.3 0a75.3 75.3 0 1 0 150.6 0 75.3 75.3 0 1 0-150.6 0Z" fill="#CEE9F4" p-id="15783"></path><path d="M485.42 330.68a91.29 91.29 0 1 1 91.33-93.38 91.4 91.4 0 0 1-89.19 93.36z m0.09-150.59h-1.39A59.3 59.3 0 1 0 544.75 238a59.29 59.29 0 0 0-59.24-57.94zM369.84 540.36A91.29 91.29 0 1 1 461.17 447 91.29 91.29 0 0 1 372 540.33c-0.73 0.02-1.44 0.03-2.16 0.03z m0.1-150.6h-1.39a59.3 59.3 0 1 0 60.63 57.93 59.31 59.31 0 0 0-59.24-57.95zM748.89 621.48H115a16 16 0 0 1 0-32h633.89a16 16 0 0 1 0 32zM910 751H115a16 16 0 0 1 0-32h795a16 16 0 0 1 0 32z" fill="" p-id="15784"></path><path d="M741.52 621.48a16 16 0 0 1 0-32C825.6 589.48 894 521.08 894 437s-68.4-152.47-152.48-152.47a151.3 151.3 0 0 0-122 61.05 16 16 0 0 1-25.6-19.21 186.07 186.07 0 0 1 63.78-53.72 182.52 182.52 0 0 1 83.85-20.12C843.24 252.53 926 335.29 926 437s-82.76 184.48-184.48 184.48z" fill="" p-id="15785"></path></svg>