<?xml version="1.0" standalone="no"?><!DOCTYPE svg PUBLIC "-//W3C//DTD SVG 1.1//EN" "http://www.w3.org/Graphics/SVG/1.1/DTD/svg11.dtd"><svg t="1597412453411" class="icon" viewBox="0 0 1024 1024" version="1.1" xmlns="http://www.w3.org/2000/svg" p-id="3536" xmlns:xlink="http://www.w3.org/1999/xlink" width="200" height="200"><defs><style type="text/css"></style></defs><path d="M187.28 421.58a187.46 187.46 0 0 1 74.4-18.5 192.82 192.82 0 0 1 19.41 0.24c18.33-85.14 87.82-152 175.81-165.41 0-2.62 0-5.26-0.13-7.9C452.91 130.42 376 50.93 279.56 41.16A196.82 196.82 0 0 1 339.11 175c4.22 109-80.73 200.8-189.73 205a198.77 198.77 0 0 1-27.8-0.88 197.7 197.7 0 0 0 65.7 42.46z" fill="#F7D134" p-id="3537"></path><path d="M180.37 439a16.44 16.44 0 0 1-3.46-0.38A213.23 213.23 0 0 1 74 383a16 16 0 0 1 12.79-27.4 183.83 183.83 0 0 0 25.57 0.8c100-3.87 178.23-88.39 174.36-188.4A180.76 180.76 0 0 0 232 45a16 16 0 0 1 12.78-27.38 213.57 213.57 0 0 1 191.58 204.15 217.36 217.36 0 0 1-0.49 25.15 16 16 0 1 1-31.87-2.49 182 182 0 0 0 0.42-21.42C401.49 148.29 352.63 84.13 284.9 59.4A213.64 213.64 0 0 1 262.05 320a211.88 211.88 0 0 1-130.39 66.89 180.59 180.59 0 0 0 52.14 20.39 16 16 0 0 1-3.43 31.72z" fill="" p-id="3538"></path><path d="M782.4 435.17c-28.24-98.68-119.12-170.92-226.88-170.92-110 0-202.49 75.33-228.6 177.23a211.72 211.72 0 0 0-21.48-1.1c-115 0-208.31 93.27-208.31 208.31S190.39 857 305.44 857h443.14c117.23 0 212.26-95 212.26-212.26 0-105.74-77.29-193.37-178.44-209.57z" fill="#CEE9F4" p-id="3539"></path><path d="M698.58 843H508a16 16 0 0 1 0-32h190.58c108.22 0 196.26-88 196.26-196.26 0-97-69.38-178.46-165-193.77A16 16 0 0 1 717 409.58c-26.85-93.81-113.82-159.33-211.5-159.33a219.8 219.8 0 0 0-213.1 165.2 16 16 0 0 1-17.13 11.95 196.18 196.18 0 0 0-19.85-1c-106 0-192.31 86.27-192.31 192.31S149.4 811 255.44 811h26.4a16 16 0 0 1 0 32h-26.4a224.31 224.31 0 0 1 0-448.62q4.81 0 9.66 0.21a252.06 252.06 0 0 1 479.73-3.4A228.27 228.27 0 0 1 698.58 843z" fill="" p-id="3540"></path><path d="M478 907.9c0 55.72-30.91 77.3-69 77.3s-69-21.58-69-77.3 69-124.49 69-124.49 69 68.77 69 124.49z" fill="#F7D134" p-id="3541"></path><path d="M396 969.59c-22.35 0-41.18-6.93-54.44-20.06-15-14.83-22.6-36.78-22.6-65.23 0-58.37 68.48-127.26 71.39-130.16a8 8 0 0 1 11.29 0C404.55 757 473 825.93 473 884.3c0 28.45-7.6 50.4-22.59 65.23-13.25 13.13-32.08 20.06-54.41 20.06z m0-198.16c-16.1 17.5-61 70.19-61 112.87 0 57.27 33.19 69.29 61 69.29s61-12 61-69.29c0-42.74-44.91-95.38-61-112.87z" fill="" p-id="3542"></path></svg>