<?xml version="1.0" standalone="no"?><!DOCTYPE svg PUBLIC "-//W3C//DTD SVG 1.1//EN" "http://www.w3.org/Graphics/SVG/1.1/DTD/svg11.dtd"><svg t="1597412445654" class="icon" viewBox="0 0 1024 1024" version="1.1" xmlns="http://www.w3.org/2000/svg" p-id="3377" xmlns:xlink="http://www.w3.org/1999/xlink" width="200" height="200"><defs><style type="text/css"></style></defs><path d="M187.28 443.58a187.46 187.46 0 0 1 74.4-18.5 192.82 192.82 0 0 1 19.41 0.24c18.33-85.14 87.82-152 175.81-165.41 0-2.62 0-5.26-0.13-7.9C452.91 152.42 376 72.93 279.56 63.16A196.82 196.82 0 0 1 339.11 197c4.22 109-80.73 200.8-189.73 205a198.77 198.77 0 0 1-27.8-0.88 197.7 197.7 0 0 0 65.7 42.46z" fill="#F7D134" p-id="3378"></path><path d="M180.37 461a16.44 16.44 0 0 1-3.46-0.38A213.16 213.16 0 0 1 74 405a16 16 0 0 1 12.79-27.4 183.83 183.83 0 0 0 25.57 0.8c100-3.87 178.23-88.39 174.36-188.4A180.76 180.76 0 0 0 232 67a16 16 0 0 1 12.77-27.38 213.56 213.56 0 0 1 191.59 204.15 217.36 217.36 0 0 1-0.49 25.15 16 16 0 1 1-31.87-2.49 182 182 0 0 0 0.42-21.42c-2.93-74.72-51.79-138.88-119.52-163.61a213.59 213.59 0 0 1-153.24 327.53 180.59 180.59 0 0 0 52.14 20.39 16 16 0 0 1-3.43 31.68z" fill="" p-id="3379"></path><path d="M790.4 458.17c-28.24-98.68-119.12-170.92-226.88-170.92-110 0-202.49 75.33-228.6 177.23a211.72 211.72 0 0 0-21.48-1.1c-115 0-208.31 93.27-208.31 208.31S198.39 880 313.44 880h443.14c117.23 0 212.26-95 212.26-212.26 0-105.74-77.29-193.37-178.44-209.57z" fill="#CEE9F4" p-id="3380"></path><path d="M706.58 866h-153.5a16 16 0 1 1 0-32h153.5c108.22 0 196.26-88 196.26-196.26 0-97-69.38-178.46-165-193.77A16 16 0 0 1 725 432.58c-26.85-93.81-113.82-159.33-211.5-159.33a219.8 219.8 0 0 0-213.1 165.2 16 16 0 0 1-17.13 11.95 196.18 196.18 0 0 0-19.85-1c-106 0-192.31 86.27-192.31 192.31S157.4 834 263.44 834h26.4a16 16 0 0 1 0 32h-26.4a224.31 224.31 0 0 1 0-448.62q4.81 0 9.66 0.21a252.06 252.06 0 0 1 479.73-3.4A228.27 228.27 0 0 1 706.58 866z" fill="" p-id="3381"></path><path d="M492.82 937.42a8 8 0 0 1-4-1.07L344 853.26a8 8 0 1 1 8-13.88l144.86 83.1a8 8 0 0 1-4 14.94z" fill="" p-id="3382"></path><path d="M348.21 938.24a8 8 0 0 1-4-14.92l144.4-83.9a8 8 0 0 1 8 13.84l-144.4 83.9a8 8 0 0 1-4 1.08z" fill="" p-id="3383"></path><path d="M421 980a8 8 0 0 1-8-8l-0.46-167a8 8 0 0 1 8-8 8 8 0 0 1 8 8l0.46 167a8 8 0 0 1-8 8z" fill="" p-id="3384"></path></svg>