<?xml version="1.0" standalone="no"?><!DOCTYPE svg PUBLIC "-//W3C//DTD SVG 1.1//EN" "http://www.w3.org/Graphics/SVG/1.1/DTD/svg11.dtd"><svg t="1598425691719" class="icon" viewBox="0 0 1024 1024" version="1.1" xmlns="http://www.w3.org/2000/svg" p-id="2297" xmlns:xlink="http://www.w3.org/1999/xlink" width="200" height="200"><defs><style type="text/css"></style></defs><path d="M512 1023.998933a508.79894 508.79894 0 0 1-199.295585-40.234583 510.19627 510.19627 0 0 1-162.740994-109.727771A510.270937 510.270937 0 0 1 40.224983 711.295585 508.79894 508.79894 0 0 1 0.001067 512a508.79894 508.79894 0 0 1 40.234583-199.295585A510.270937 510.270937 0 0 1 149.974088 149.963421 510.270937 510.270937 0 0 1 312.715082 40.224983 508.79894 508.79894 0 0 1 512 0.001067a508.79894 508.79894 0 0 1 199.295585 40.234583A510.270937 510.270937 0 0 1 874.036579 149.974088a510.19627 510.19627 0 0 1 109.727771 162.740994A508.79894 508.79894 0 0 1 1023.998933 512a508.79894 508.79894 0 0 1-40.234583 199.295585 510.19627 510.19627 0 0 1-109.727771 162.740994 510.19627 510.19627 0 0 1-162.740994 109.727771A508.79894 508.79894 0 0 1 512 1023.998933z m-21.333289-490.665644v191.9996h42.666578V533.333289h191.9996v-42.666578H533.333289V298.667111h-42.666578v191.9996H298.667111v42.666578z" fill="#2170D9" p-id="2298"></path></svg>