<?xml version="1.0" standalone="no"?><!DOCTYPE svg PUBLIC "-//W3C//DTD SVG 1.1//EN" "http://www.w3.org/Graphics/SVG/1.1/DTD/svg11.dtd"><svg t="1598409481727" class="icon" viewBox="0 0 1024 1024" version="1.1" xmlns="http://www.w3.org/2000/svg" p-id="1195" xmlns:xlink="http://www.w3.org/1999/xlink" width="200" height="200"><defs><style type="text/css"></style></defs><path d="M182.976427 189.44A459.264 459.264 0 0 0 51.200427 512a459.264 459.264 0 0 0 131.776 322.56L146.432427 870.4A510.293333 510.293333 0 0 1 0.02176 512 510.250667 510.250667 0 0 1 146.432427 153.6h0.021333l36.522667 35.84zM435.200427 307.2h153.621333c98.56 0 179.2 80.64 179.2 179.2v51.2c0 59.818667-29.696 113.024-75.093333 145.621333l-78.506667 135.978667-59.114667-102.4H435.200427c-98.56 0-179.2-80.64-179.2-179.2v-51.2c0-98.56 80.64-179.2 179.2-179.2z m221.973333 335.530667a134.549333 134.549333 0 0 0 59.648-111.530667v-38.4c0-73.92-60.48-134.4-134.4-134.4H441.600427c-73.92 0-134.4 60.48-134.4 134.4v38.4c0 73.92 60.48 134.4 134.4 134.4l143.253333-0.021333 29.568 51.221333 42.752-74.069333zM804.480427 225.28l-36.565334 35.84C831.31776 325.76 870.400427 414.314667 870.400427 512s-39.104 186.24-102.485334 250.88l36.565334 35.84c72.448-73.877333 117.12-175.082667 117.12-286.72s-44.672-212.842667-117.12-286.72zM219.54176 798.72l36.565333-35.84A357.184 357.184 0 0 1 153.600427 512c0-97.685333 39.104-186.24 102.485333-250.88l-36.565333-35.84A408.256 408.256 0 0 0 102.400427 512c0 111.637333 44.693333 212.842667 117.141333 286.72zM877.611093 153.6A510.314667 510.314667 0 0 1 1024.000427 512a510.250667 510.250667 0 0 1-146.410667 358.4l-36.565333-35.84A459.2 459.2 0 0 0 972.800427 512a459.306667 459.306667 0 0 0-131.776-322.56l36.586666-35.84z" p-id="1196" fill="#d81e06"></path></svg>